<?xml version="1.0" encoding="UTF-8" standalone="no"?>
<!-- Created with Inkscape (http://www.inkscape.org/) -->

<svg
   xmlns:osb="http://www.openswatchbook.org/uri/2009/osb"
   xmlns:dc="http://purl.org/dc/elements/1.1/"
   xmlns:cc="http://creativecommons.org/ns#"
   xmlns:rdf="http://www.w3.org/1999/02/22-rdf-syntax-ns#"
   xmlns:svg="http://www.w3.org/2000/svg"
   xmlns="http://www.w3.org/2000/svg"
   xmlns:sodipodi="http://sodipodi.sourceforge.net/DTD/sodipodi-0.dtd"
   xmlns:inkscape="http://www.inkscape.org/namespaces/inkscape"
   width="1024"
   height="1024"
   viewBox="0 0 1024 1024"
   id="svg2"
   version="1.1"
   inkscape:version="0.91 r13725"
   sodipodi:docname="android-l-icon-grid-template.svg">
  <title
     id="title4146">Icon-1024x1024-Template</title>
  <defs
     id="defs4">
    <linearGradient
       id="linearGradient5598"
       osb:paint="solid">
      <stop
         style="stop-color:#000000;stop-opacity:1;"
         offset="0"
         id="stop5600" />
    </linearGradient>
    <clipPath
       id="clipPath16">
      <path
         id="path18"
         inkscape:connector-curvature="0"
         d="M 0,192 192,192 192,0 0,0 0,192 z" />
    </clipPath>
    <clipPath
       id="clipPath24">
      <path
         id="path26"
         inkscape:connector-curvature="0"
         d="m 67.75,124.25 56.5,0 0,-56.5 -56.5,0 0,56.5 z" />
    </clipPath>
    <clipPath
       id="clipPath40">
      <path
         id="path42"
         inkscape:connector-curvature="0"
         d="m -0.176773,192.177 192.353773,0 0,-192.353773 -192.353773,0 0,192.353773 z" />
    </clipPath>
    <clipPath
       id="clipPath56">
      <path
         id="path58"
         inkscape:connector-curvature="0"
         d="m -0.176773,192.177 192.353773,0 0,-192.353773 -192.353773,0 0,192.353773 z" />
    </clipPath>
    <clipPath
       id="clipPath72">
      <path
         id="path74"
         inkscape:connector-curvature="0"
         d="m 95.75,192 0.5,0 0,-192 -0.5,0 0,192 z" />
    </clipPath>
    <clipPath
       id="clipPath88">
      <path
         id="path90"
         inkscape:connector-curvature="0"
         d="m 0,96.25 192,0 0,-0.5 -192,0 0,0.5 z" />
    </clipPath>
    <clipPath
       id="clipPath104">
      <path
         id="path106"
         inkscape:connector-curvature="0"
         d="m 0,124.25 192,0 0,-0.5 -192,0 0,0.5 z" />
    </clipPath>
    <clipPath
       id="clipPath120">
      <path
         id="path122"
         inkscape:connector-curvature="0"
         d="m 0,68.25 192,0 0,-0.5 -192,0 0,0.5 z" />
    </clipPath>
    <clipPath
       id="clipPath136">
      <path
         id="path138"
         inkscape:connector-curvature="0"
         d="m 123.755,192 0.5,0 0,-192 -0.5,0 0,192 z" />
    </clipPath>
    <clipPath
       id="clipPath152">
      <path
         id="path154"
         inkscape:connector-curvature="0"
         d="m 67.75,192 0.5,0 0,-192 -0.5,0 0,192 z" />
    </clipPath>
    <clipPath
       id="clipPath168">
      <path
         id="path170"
         inkscape:connector-curvature="0"
         d="M 0,192 192,192 192,0 0,0 0,192 z" />
    </clipPath>
    <clipPath
       id="clipPath196">
      <path
         id="path198"
         inkscape:connector-curvature="0"
         d="M 0,192 192,192 192,0 0,0 0,192 z" />
    </clipPath>
    <clipPath
       id="clipPath224">
      <path
         id="path226"
         inkscape:connector-curvature="0"
         d="M 0,192 192,192 192,0 0,0 0,192 z" />
    </clipPath>
    <clipPath
       id="clipPath252">
      <path
         id="path254"
         inkscape:connector-curvature="0"
         d="M 0,192 192,192 192,0 0,0 0,192 z" />
    </clipPath>
    <clipPath
       id="clipPath16-8">
      <path
         id="path18-1"
         inkscape:connector-curvature="0"
         d="M 0,192 192,192 192,0 0,0 0,192 Z" />
    </clipPath>
    <clipPath
       id="clipPath24-2">
      <path
         id="path26-9"
         inkscape:connector-curvature="0"
         d="m 67.75,124.25 56.5,0 0,-56.5 -56.5,0 0,56.5 z" />
    </clipPath>
    <clipPath
       id="clipPath40-4">
      <path
         id="path42-0"
         inkscape:connector-curvature="0"
         d="m -0.176773,192.177 192.353773,0 0,-192.353773 -192.353773,0 0,192.353773 z" />
    </clipPath>
    <clipPath
       id="clipPath56-7">
      <path
         id="path58-0"
         inkscape:connector-curvature="0"
         d="m -0.176773,192.177 192.353773,0 0,-192.353773 -192.353773,0 0,192.353773 z" />
    </clipPath>
    <clipPath
       id="clipPath72-4">
      <path
         id="path74-0"
         inkscape:connector-curvature="0"
         d="m 95.75,192 0.5,0 0,-192 -0.5,0 0,192 z" />
    </clipPath>
    <clipPath
       id="clipPath88-7">
      <path
         id="path90-0"
         inkscape:connector-curvature="0"
         d="m 0,96.25 192,0 0,-0.5 -192,0 0,0.5 z" />
    </clipPath>
    <clipPath
       id="clipPath104-4">
      <path
         id="path106-7"
         inkscape:connector-curvature="0"
         d="m 0,124.25 192,0 0,-0.5 -192,0 0,0.5 z" />
    </clipPath>
    <clipPath
       id="clipPath120-9">
      <path
         id="path122-6"
         inkscape:connector-curvature="0"
         d="m 0,68.25 192,0 0,-0.5 -192,0 0,0.5 z" />
    </clipPath>
    <clipPath
       id="clipPath136-8">
      <path
         id="path138-6"
         inkscape:connector-curvature="0"
         d="m 123.755,192 0.5,0 0,-192 -0.5,0 0,192 z" />
    </clipPath>
    <clipPath
       id="clipPath152-8">
      <path
         id="path154-5"
         inkscape:connector-curvature="0"
         d="m 67.75,192 0.5,0 0,-192 -0.5,0 0,192 z" />
    </clipPath>
    <clipPath
       id="clipPath168-3">
      <path
         id="path170-7"
         inkscape:connector-curvature="0"
         d="M 0,192 192,192 192,0 0,0 0,192 Z" />
    </clipPath>
    <clipPath
       id="clipPath196-4">
      <path
         id="path198-4"
         inkscape:connector-curvature="0"
         d="M 0,192 192,192 192,0 0,0 0,192 Z" />
    </clipPath>
    <clipPath
       id="clipPath224-0">
      <path
         id="path226-1"
         inkscape:connector-curvature="0"
         d="M 0,192 192,192 192,0 0,0 0,192 Z" />
    </clipPath>
    <clipPath
       id="clipPath252-6">
      <path
         id="path254-7"
         inkscape:connector-curvature="0"
         d="M 0,192 192,192 192,0 0,0 0,192 Z" />
    </clipPath>
  </defs>
  <sodipodi:namedview
     id="base"
     pagecolor="#ffffff"
     bordercolor="#666666"
     borderopacity="1.0"
     inkscape:pageopacity="0.0"
     inkscape:pageshadow="2"
     inkscape:zoom="0.5"
     inkscape:cx="227.33419"
     inkscape:cy="644.59436"
     inkscape:document-units="px"
     inkscape:current-layer="layer7"
     showgrid="true"
     showborder="false"
     units="px"
     inkscape:window-width="1920"
     inkscape:window-height="1017"
     inkscape:window-x="-8"
     inkscape:window-y="-8"
     inkscape:window-maximized="1"
     showguides="true"
     inkscape:guide-bbox="true"
     inkscape:snap-to-guides="true"
     inkscape:snap-grids="true">
    <inkscape:grid
       type="xygrid"
       id="grid4136"
       dotted="false"
       empspacing="4" />
    <sodipodi:guide
       position="0,0"
       orientation="0,1024"
       id="guide4138" />
    <sodipodi:guide
       position="1024,0"
       orientation="-1024,0"
       id="guide4140" />
    <sodipodi:guide
       position="1024,1024"
       orientation="0,-1024"
       id="guide4142" />
    <sodipodi:guide
       position="0,1024"
       orientation="1024,0"
       id="guide4144" />
    <sodipodi:guide
       position="-160,512"
       orientation="0,1"
       id="guide6395"
       inkscape:label="Center-Y"
       inkscape:color="rgb(0,0,255)" />
    <sodipodi:guide
       position="512,1184"
       orientation="1,0"
       id="guide6397"
       inkscape:label="Center-X"
       inkscape:color="rgb(0,0,255)" />
    <sodipodi:guide
       position="-160,662"
       orientation="0,1"
       id="guide6399"
       inkscape:label="Internal-Top"
       inkscape:color="rgb(0,0,255)" />
    <sodipodi:guide
       position="-160,362"
       orientation="0,1"
       id="guide6401"
       inkscape:label="Internal-Bottom"
       inkscape:color="rgb(0,0,255)" />
    <sodipodi:guide
       position="662,1184"
       orientation="1,0"
       id="guide6403"
       inkscape:label="Internal-Right"
       inkscape:color="rgb(0,0,255)" />
    <sodipodi:guide
       position="362,1184"
       orientation="1,0"
       id="guide6405"
       inkscape:label="Internal-Left"
       inkscape:color="rgb(0,0,255)" />
    <sodipodi:guide
       position="-160,-160"
       orientation="-0.70710678,0.70710678"
       id="guide6526"
       inkscape:label="Diagonal-45"
       inkscape:color="rgb(0,0,255)" />
    <sodipodi:guide
       position="-128,1152"
       orientation="0.70710678,0.70710678"
       id="guide6528"
       inkscape:label="Diagonal"
       inkscape:color="rgb(0,0,255)" />
  </sodipodi:namedview>
  <metadata
     id="metadata7">
    <rdf:RDF>
      <cc:Work
         rdf:about="">
        <dc:format>image/svg+xml</dc:format>
        <dc:type
           rdf:resource="http://purl.org/dc/dcmitype/StillImage" />
        <dc:title>Icon-1024x1024-Template</dc:title>
      </cc:Work>
    </rdf:RDF>
  </metadata>
  <g
     inkscape:label="Background"
     inkscape:groupmode="layer"
     id="layer1"
     transform="translate(0,-28.362183)"
     style="display:inline"
     sodipodi:insensitive="true" />
  <g
     inkscape:groupmode="layer"
     id="layer7"
     inkscape:label="Grid - Circles"
     style="display:inline"
     sodipodi:insensitive="true">
    <g
       style="display:inline;opacity:0.45"
       id="g248"
       transform="matrix(5.3378385,0,0,-5.3379284,-1.2527419,1025.5118)">
      <g
         clip-path="url(#clipPath252-6)"
         id="g250">
        <g
           transform="translate(184,96)"
           id="g256">
          <path
             d="m 0,0 c 0,-48.601 -39.399,-88 -88,-88 -48.601,0 -88,39.399 -88,88 0,48.601 39.399,88 88,88 C -39.399,88 0,48.601 0,0 Z"
             inkscape:connector-curvature="0"
             id="path258"
             style="fill:none;stroke:#373535;stroke-width:0.5;stroke-linecap:butt;stroke-linejoin:miter;stroke-miterlimit:10;stroke-dasharray:none;stroke-opacity:1" />
        </g>
      </g>
    </g>
    <g
       style="display:inline;opacity:1"
       id="g20"
       transform="matrix(5.3378385,0,0,-5.3379284,-1.2527419,1025.5118)">
      <g
         id="g22" />
      <g
         id="g28">
        <g
           clip-path="url(#clipPath24-2)"
           id="g30"
           style="opacity:0.19999701"
           transform="matrix(0.99473499,0,0,0.99471817,0.65910637,0.70763496)">
          <g
             transform="translate(124,96)"
             id="g32">
            <path
               d="m 0,0 c 0,-15.464 -12.536,-28 -28,-28 -15.464,0 -28,12.536 -28,28 0,15.464 12.536,28 28,28 C -12.536,28 0,15.464 0,0 Z"
               inkscape:connector-curvature="0"
               id="path34"
               style="fill:none;stroke:#373535;stroke-width:0.5;stroke-linecap:butt;stroke-linejoin:miter;stroke-miterlimit:10;stroke-dasharray:none;stroke-opacity:1" />
          </g>
        </g>
      </g>
    </g>
  </g>
  <g
     inkscape:groupmode="layer"
     id="layer6"
     inkscape:label="Grid - Rectangle"
     style="display:inline"
     sodipodi:insensitive="true">
    <g
       style="display:inline;opacity:0.45"
       id="g220"
       transform="matrix(5.3378385,0,0,-5.3379284,-1.2527419,1025.5118)">
      <g
         clip-path="url(#clipPath224-0)"
         id="g222">
        <g
           transform="translate(160,20)"
           id="g228">
          <path
             d="m 0,0 -128,0 c -6.627,0 -12,5.373 -12,12 l 0,128 c 0,6.627 5.373,12 12,12 l 128,0 c 6.627,0 12,-5.373 12,-12 L 12,12 C 12,5.373 6.627,0 0,0 Z"
             inkscape:connector-curvature="0"
             id="path230"
             style="fill:none;stroke:#373535;stroke-width:0.5;stroke-linecap:butt;stroke-linejoin:miter;stroke-miterlimit:10;stroke-dasharray:none;stroke-opacity:1" />
        </g>
        <g
           transform="translate(172,160)"
           id="g232">
          <path
             d="m 0,0 c 0,-6.627 -5.373,-12 -12,-12 -6.627,0 -12,5.373 -12,12 0,6.627 5.373,12 12,12 C -5.373,12 0,6.627 0,0 Z"
             inkscape:connector-curvature="0"
             id="path234"
             style="fill:none;stroke:#3bade2;stroke-width:0.5;stroke-linecap:butt;stroke-linejoin:miter;stroke-miterlimit:10;stroke-dasharray:none;stroke-opacity:1" />
        </g>
        <g
           transform="translate(44,160)"
           id="g236">
          <path
             d="m 0,0 c 0,-6.627 -5.373,-12 -12,-12 -6.627,0 -12,5.373 -12,12 0,6.627 5.373,12 12,12 C -5.373,12 0,6.627 0,0 Z"
             inkscape:connector-curvature="0"
             id="path238"
             style="fill:none;stroke:#3bade2;stroke-width:0.5;stroke-linecap:butt;stroke-linejoin:miter;stroke-miterlimit:10;stroke-dasharray:none;stroke-opacity:1" />
        </g>
        <g
           transform="translate(172,32)"
           id="g240">
          <path
             d="m 0,0 c 0,-6.627 -5.373,-12 -12,-12 -6.627,0 -12,5.373 -12,12 0,6.627 5.373,12 12,12 C -5.373,12 0,6.627 0,0 Z"
             inkscape:connector-curvature="0"
             id="path242"
             style="fill:none;stroke:#3bade2;stroke-width:0.5;stroke-linecap:butt;stroke-linejoin:miter;stroke-miterlimit:10;stroke-dasharray:none;stroke-opacity:1" />
        </g>
        <g
           transform="translate(44,32)"
           id="g244">
          <path
             d="m 0,0 c 0,-6.627 -5.373,-12 -12,-12 -6.627,0 -12,5.373 -12,12 0,6.627 5.373,12 12,12 C -5.373,12 0,6.627 0,0 Z"
             inkscape:connector-curvature="0"
             id="path246"
             style="fill:none;stroke:#3bade2;stroke-width:0.5;stroke-linecap:butt;stroke-linejoin:miter;stroke-miterlimit:10;stroke-dasharray:none;stroke-opacity:1" />
        </g>
      </g>
    </g>
  </g>
  <g
     inkscape:groupmode="layer"
     id="layer5"
     inkscape:label="Grid - Landscape"
     style="display:inline"
     sodipodi:insensitive="true">
    <g
       style="display:inline;opacity:0.45"
       id="g192"
       transform="matrix(5.3378385,0,0,-5.3379284,-1.2527419,1025.5118)">
      <g
         clip-path="url(#clipPath196-4)"
         id="g194">
        <g
           transform="translate(172,32)"
           id="g200">
          <path
             d="m 0,0 -152,0 c -6.627,0 -12,5.373 -12,12 l 0,104 c 0,6.627 5.373,12 12,12 l 152,0 c 6.627,0 12,-5.373 12,-12 L 12,12 C 12,5.373 6.627,0 0,0 Z"
             inkscape:connector-curvature="0"
             id="path202"
             style="fill:none;stroke:#373535;stroke-width:0.5;stroke-linecap:butt;stroke-linejoin:miter;stroke-miterlimit:10;stroke-dasharray:none;stroke-opacity:1" />
        </g>
        <g
           transform="translate(172,32)"
           id="g204">
          <path
             d="m 0,0 c -6.627,0 -12,5.373 -12,12 0,6.627 5.373,12 12,12 C 6.627,24 12,18.627 12,12 12,5.373 6.627,0 0,0 Z"
             inkscape:connector-curvature="0"
             id="path206"
             style="fill:none;stroke:#3bade2;stroke-width:0.5;stroke-linecap:butt;stroke-linejoin:miter;stroke-miterlimit:10;stroke-dasharray:none;stroke-opacity:1" />
        </g>
        <g
           transform="translate(172,136)"
           id="g208">
          <path
             d="m 0,0 c -6.627,0 -12,5.373 -12,12 0,6.627 5.373,12 12,12 C 6.627,24 12,18.627 12,12 12,5.373 6.627,0 0,0 Z"
             inkscape:connector-curvature="0"
             id="path210"
             style="fill:none;stroke:#3bade2;stroke-width:0.5;stroke-linecap:butt;stroke-linejoin:miter;stroke-miterlimit:10;stroke-dasharray:none;stroke-opacity:1" />
        </g>
        <g
           transform="translate(20,32)"
           id="g212">
          <path
             d="m 0,0 c -6.627,0 -12,5.373 -12,12 0,6.627 5.373,12 12,12 C 6.627,24 12,18.627 12,12 12,5.373 6.627,0 0,0 Z"
             inkscape:connector-curvature="0"
             id="path214"
             style="fill:none;stroke:#3bade2;stroke-width:0.5;stroke-linecap:butt;stroke-linejoin:miter;stroke-miterlimit:10;stroke-dasharray:none;stroke-opacity:1" />
        </g>
        <g
           transform="translate(20,136)"
           id="g216">
          <path
             d="m 0,0 c -6.627,0 -12,5.373 -12,12 0,6.627 5.373,12 12,12 C 6.627,24 12,18.627 12,12 12,5.373 6.627,0 0,0 Z"
             inkscape:connector-curvature="0"
             id="path218"
             style="fill:none;stroke:#3bade2;stroke-width:0.5;stroke-linecap:butt;stroke-linejoin:miter;stroke-miterlimit:10;stroke-dasharray:none;stroke-opacity:1" />
        </g>
      </g>
    </g>
  </g>
  <g
     inkscape:groupmode="layer"
     id="layer4"
     inkscape:label="Grid - Portrait"
     style="display:inline"
     sodipodi:insensitive="true">
    <g
       style="display:inline;opacity:0.45"
       id="g164"
       transform="matrix(5.3378385,0,0,-5.3379284,-1.2527419,1025.5118)">
      <g
         clip-path="url(#clipPath168-3)"
         id="g166">
        <g
           transform="translate(32,20)"
           id="g172">
          <path
             d="m 0,0 0,152 c 0,6.627 5.373,12 12,12 l 104,0 c 6.627,0 12,-5.373 12,-12 L 128,0 c 0,-6.627 -5.373,-12 -12,-12 L 12,-12 C 5.373,-12 0,-6.627 0,0 Z"
             inkscape:connector-curvature="0"
             id="path174"
             style="fill:none;stroke:#373535;stroke-width:0.5;stroke-linecap:butt;stroke-linejoin:miter;stroke-miterlimit:10;stroke-dasharray:none;stroke-opacity:1" />
        </g>
        <g
           transform="translate(160,172)"
           id="g176">
          <path
             d="m 0,0 c 0,-6.627 -5.373,-12 -12,-12 -6.627,0 -12,5.373 -12,12 0,6.627 5.373,12 12,12 C -5.373,12 0,6.627 0,0 Z"
             inkscape:connector-curvature="0"
             id="path178"
             style="fill:none;stroke:#3bade2;stroke-width:0.5;stroke-linecap:butt;stroke-linejoin:miter;stroke-miterlimit:10;stroke-dasharray:none;stroke-opacity:1" />
        </g>
        <g
           transform="translate(56,172)"
           id="g180">
          <path
             d="m 0,0 c 0,-6.627 -5.373,-12 -12,-12 -6.627,0 -12,5.373 -12,12 0,6.627 5.373,12 12,12 C -5.373,12 0,6.627 0,0 Z"
             inkscape:connector-curvature="0"
             id="path182"
             style="fill:none;stroke:#3bade2;stroke-width:0.5;stroke-linecap:butt;stroke-linejoin:miter;stroke-miterlimit:10;stroke-dasharray:none;stroke-opacity:1" />
        </g>
        <g
           transform="translate(160,20)"
           id="g184">
          <path
             d="m 0,0 c 0,-6.627 -5.373,-12 -12,-12 -6.627,0 -12,5.373 -12,12 0,6.627 5.373,12 12,12 C -5.373,12 0,6.627 0,0 Z"
             inkscape:connector-curvature="0"
             id="path186"
             style="fill:none;stroke:#3bade2;stroke-width:0.5;stroke-linecap:butt;stroke-linejoin:miter;stroke-miterlimit:10;stroke-dasharray:none;stroke-opacity:1" />
        </g>
        <g
           transform="translate(56,20)"
           id="g188">
          <path
             d="m 0,0 c 0,-6.627 -5.373,-12 -12,-12 -6.627,0 -12,5.373 -12,12 0,6.627 5.373,12 12,12 C -5.373,12 0,6.627 0,0 Z"
             inkscape:connector-curvature="0"
             id="path190"
             style="fill:none;stroke:#3bade2;stroke-width:0.5;stroke-linecap:butt;stroke-linejoin:miter;stroke-miterlimit:10;stroke-dasharray:none;stroke-opacity:1" />
        </g>
      </g>
    </g>
  </g>
  <g
     inkscape:groupmode="layer"
     id="layer3"
     inkscape:label="Icon"
     style="display:inline;opacity:1" />
</svg>
